<mxfile host="app.diagrams.net" modified="2025-10-08T23:22:50.354740Z" agent="python" version="22.0.0"><diagram id="1759965770354752" name="User Flow: Community Forum"><mxGraphModel dx="1200" dy="800" grid="1" gridSize="10" guides="1" tooltips="1" connect="1" arrows="1" fold="1" page="1" pageScale="1" pageWidth="2200" pageHeight="1400" math="0" shadow="0"><root><mxCell id="0" /><mxCell id="1" parent="0" /><mxCell id="title" value="User Flow: Community Forum" style="text;whiteSpace=wrap;html=1;fontStyle=1;fontSize=18;" vertex="1" parent="1"><mxGeometry x="60" y="20" width="800" height="40" as="geometry" /></mxCell><mxCell id="s1" value="Browse topics / search" style="rounded=1;whiteSpace=wrap;html=1;" vertex="1" parent="1"><mxGeometry x="60" y="100" width="260" height="80" as="geometry" /></mxCell><mxCell id="s2" value="Open thread / ask question" style="rounded=1;whiteSpace=wrap;html=1;" vertex="1" parent="1"><mxGeometry x="360" y="100" width="260" height="80" as="geometry" /></mxCell><mxCell id="e1" value="" style="endArrow=classic;" edge="1" parent="1" source="s1" target="s2"><mxGeometry relative="1" as="geometry" /></mxCell><mxCell id="s3" value="Replies and upvotes" style="rounded=1;whiteSpace=wrap;html=1;" vertex="1" parent="1"><mxGeometry x="660" y="100" width="260" height="80" as="geometry" /></mxCell><mxCell id="e2" value="" style="endArrow=classic;" edge="1" parent="1" source="s2" target="s3"><mxGeometry relative="1" as="geometry" /></mxCell><mxCell id="s4" value="Mark solved / accepted answer" style="rounded=1;whiteSpace=wrap;html=1;" vertex="1" parent="1"><mxGeometry x="960" y="100" width="260" height="80" as="geometry" /></mxCell><mxCell id="e3" value="" style="endArrow=classic;" edge="1" parent="1" source="s3" target="s4"><mxGeometry relative="1" as="geometry" /></mxCell><mxCell id="s5" value="Award points / badges" style="rounded=1;whiteSpace=wrap;html=1;" vertex="1" parent="1"><mxGeometry x="1260" y="100" width="260" height="80" as="geometry" /></mxCell><mxCell id="e4" value="" style="endArrow=classic;" edge="1" parent="1" source="s4" target="s5"><mxGeometry relative="1" as="geometry" /></mxCell></root></mxGraphModel></diagram></mxfile>